<svg width="263" height="30" viewBox="0 0 263 30" fill="none" xmlns="http://www.w3.org/2000/svg">
<g clip-path="url(#clip0_6_198)">
<path d="M126.066 10.9776C126.066 10.9776 126.73 10.7347 127.034 10.1434C126.886 10.3586 126.681 10.5362 126.47 10.6847C123.298 12.7737 114.129 12.2934 110.317 11.6813C113.932 11.6619 117.541 11.7466 121.147 11.5259C122.574 11.4259 124.015 11.3079 125.396 10.9304C125.738 10.8333 126.074 10.7139 126.389 10.5515C126.663 10.4071 126.925 10.2253 127.108 9.9727C127.216 9.66596 127.225 9.28287 127.032 8.81095C126.387 7.23281 121.611 6.41667 119.982 6.35838C118.352 6.30147 112.08 6.18766 109.634 6.58601C107.189 6.98436 104.139 8.01147 104.006 9.32312C103.873 10.6348 104.972 11.0345 104.972 11.0345C104.972 11.0345 101.997 15.1208 102.755 20.3854C103.513 25.65 106.792 27.2282 106.792 27.2282L105.826 28.9396L106.678 28.9965L107.93 27.9708C107.93 27.9708 115.188 31.6392 122.427 27.8569L123.792 29.0548L124.588 28.9979L123.508 27.4017C123.508 27.4017 127.506 26.1858 128.397 19.9315C129.289 13.6772 126.067 10.979 126.067 10.979L126.066 10.9776ZM119.579 20.5631C119.518 21.3056 118.854 21.7914 118.854 21.7914C118.854 21.7914 118.59 23.0045 117.743 23.1322C116.897 23.2613 116.337 22.5493 116.247 22.0413C116.155 21.5333 115.839 20.8143 115.839 20.8143C115.627 21.4514 115.922 22.5881 116.155 23.042C116.389 23.4973 116.874 23.7998 116.654 23.9747C116.435 24.1482 115.913 23.6333 115.542 22.974C115.171 22.3147 115.475 20.7685 115.475 20.7685C115.18 20.7227 115.082 21.1016 115.082 21.1016L115.044 21.518C115.007 21.9344 115.09 22.9573 113.821 23.2002C112.552 23.4431 112.233 21.9497 112.233 21.9497C111.417 21.5485 111.712 20.4562 112.006 20.0176C112.301 19.5776 113.186 19.5859 113.662 19.5179C114.138 19.4499 114.365 19.3361 114.365 19.3361C113.873 19.2903 111.32 19.132 111.6 18.1077C111.879 17.0848 112.574 16.8571 112.574 16.8571C113.602 14.9625 114.221 15.5913 114.659 15.6288C115.098 15.6662 115.415 16.5684 115.43 17.0848C115.446 17.5997 115.52 18.0619 115.52 18.0619C115.52 18.0619 115.702 17.9328 115.747 17.5844C115.793 17.236 115.74 16.3797 115.928 16.084C116.117 15.7884 116.564 15.3109 117.175 15.3109C117.787 15.3109 118.468 16.4699 118.468 16.4699C119.276 16.7961 119.549 17.4331 119.33 18.1521C119.111 18.8711 118.19 19.1681 117.699 19.2667C117.207 19.3652 116.701 19.4263 116.701 19.4263C116.852 19.5776 118.107 19.4194 118.424 19.4041C118.741 19.3888 119.64 19.8205 119.579 20.5631Z" fill="white"/>
<path d="M131.872 16.6906C131.734 17.0681 131.544 17.4221 131.319 17.751C131.423 17.5525 131.514 17.3429 131.591 17.1222C131.692 16.9834 131.785 16.8391 131.872 16.6906Z" fill="white"/>
<path d="M21.3744 9.20099L12.6185 29.6003H8.75736L0 9.20099H2.7858C3.4224 9.20099 3.97319 9.35089 4.43819 9.6507C4.90179 9.9505 5.24085 10.3794 5.45259 10.9388L10.3682 23.4334C10.4609 23.6736 10.5274 23.9789 10.5675 24.3523C10.6076 24.7256 10.6409 25.217 10.6671 25.8291H10.7073C10.7336 25.2031 10.7668 24.7076 10.8069 24.3426C10.8471 23.9761 10.9066 23.6736 10.9854 23.4348L15.9205 10.9401C16.1322 10.3808 16.4671 9.95189 16.9252 9.65209C17.3832 9.35228 17.9299 9.20238 18.5665 9.20238H21.373L21.3744 9.20099Z" fill="white"/>
<path d="M24.2502 1.93625C24.509 1.48376 24.8632 1.12427 25.3144 0.857779C25.7655 0.591285 26.2568 0.458038 26.7869 0.458038C27.3169 0.458038 27.7847 0.591285 28.2303 0.857779C28.6745 1.12427 29.026 1.48376 29.2848 1.93625C29.5436 2.38873 29.6723 2.87453 29.6723 3.39364C29.6723 3.91274 29.5422 4.39854 29.2848 4.85102C29.026 5.30351 28.6745 5.663 28.2303 5.92949C27.786 6.19598 27.3044 6.32923 26.7869 6.32923C26.2693 6.32923 25.7655 6.19598 25.3144 5.92949C24.8632 5.663 24.509 5.3049 24.2502 4.85102C23.9914 4.39854 23.8627 3.91274 23.8627 3.39364C23.8627 2.87453 23.9914 2.38873 24.2502 1.93625ZM28.9361 29.6003H24.5975V9.20098H28.9361V29.6003Z" fill="white"/>
<path d="M36.2694 29.1408C35.0419 28.5954 33.9569 27.8708 33.0159 26.9659L33.8324 25.5293C34.0317 25.1962 34.3029 24.938 34.6489 24.7506C34.9935 24.5646 35.3657 24.4716 35.7629 24.4716C36.2002 24.4716 36.6057 24.5646 36.9766 24.7506C37.6658 25.0962 38.2872 25.3697 38.838 25.5695C39.3888 25.7694 39.9755 25.8693 40.5997 25.8693C41.4757 25.8693 42.1552 25.6736 42.6396 25.2808C43.1239 24.888 43.3661 24.3259 43.3661 23.5944C43.3661 23.0753 43.1239 22.6062 42.6396 22.187C42.1552 21.7678 41.3622 21.3459 40.262 20.9198C38.7093 20.334 37.5122 19.7428 36.6694 19.1432C35.8266 18.5449 35.2467 17.9023 34.9284 17.2166C34.6101 16.531 34.451 15.7037 34.451 14.7321C34.451 13.5607 34.7098 12.5336 35.2274 11.648C35.7449 10.7639 36.4839 10.0782 37.4458 9.5924C38.4076 9.10661 39.5382 8.86371 40.8391 8.86371C41.8867 8.86371 42.9551 9.05664 44.0428 9.4425C45.1306 9.82836 46.0398 10.3808 46.7691 11.0998L46.0135 12.5974C45.8405 12.9569 45.5762 13.24 45.2178 13.4455C44.8593 13.6523 44.4677 13.755 44.0442 13.755C43.7121 13.755 43.3606 13.6814 42.9897 13.5357C42.8707 13.4829 42.6811 13.4066 42.4223 13.3067C42.1635 13.2067 41.9144 13.1276 41.6764 13.0665C41.4369 13.0069 41.1989 12.9763 40.9595 12.9763C40.2426 12.9763 39.6988 13.1262 39.3279 13.426C38.9556 13.7258 38.7701 14.1617 38.7701 14.7335C38.7701 15.1999 38.9694 15.5955 39.3666 15.9216C39.7652 16.2478 40.4613 16.5837 41.4563 16.9293C43.6055 17.7149 45.1804 18.606 46.1824 19.604C47.1843 20.6019 47.6853 21.8928 47.6853 23.4765C47.6853 24.7673 47.3767 25.9013 46.7594 26.8798C46.1422 27.8583 45.2704 28.6162 44.1425 29.1547C43.0146 29.6933 41.7151 29.9625 40.2412 29.9625C38.7674 29.9625 37.4983 29.6891 36.2708 29.1436L36.2694 29.1408Z" fill="white"/>
<path d="M51.7927 1.93625C52.0515 1.48376 52.4058 1.12427 52.8569 0.857779C53.3081 0.591285 53.7994 0.458038 54.3294 0.458038C54.8594 0.458038 55.3272 0.591285 55.7728 0.857779C56.2171 1.12427 56.5686 1.48376 56.8274 1.93625C57.0861 2.38873 57.2148 2.87453 57.2148 3.39364C57.2148 3.91274 57.0848 4.39854 56.8274 4.85102C56.5686 5.30351 56.2171 5.663 55.7728 5.92949C55.3286 6.19598 54.847 6.32923 54.3294 6.32923C53.8118 6.32923 53.3081 6.19598 52.8569 5.92949C52.4058 5.663 52.0515 5.3049 51.7927 4.85102C51.5339 4.39854 51.4052 3.91274 51.4052 3.39364C51.4052 2.87453 51.5339 2.38873 51.7927 1.93625ZM56.4786 29.6003H52.1401V9.20098H56.4786V29.6003Z" fill="white"/>
<path d="M76.5591 27.7834C75.5765 28.3816 74.5317 28.8952 73.4245 29.3199C72.316 29.746 71.1383 29.9584 69.8914 29.9584C68.6445 29.9584 67.5457 29.696 66.5977 29.17C65.6484 28.6439 64.9121 27.8861 64.389 26.8951C63.8645 25.904 63.6029 24.7298 63.6029 23.3723V13.2525H60.0408V10.5973C60.0408 10.1448 60.1861 9.7992 60.4781 9.55907C60.7701 9.31895 61.0953 9.19958 61.4537 9.19958H63.6029L63.6832 3.8697C63.7095 3.36448 63.859 2.94114 64.1316 2.60247C64.4028 2.2638 64.8042 2.09308 65.3356 2.09308H67.983V9.1982H73.7151V13.2497H67.983V22.3716C67.983 23.4501 68.2487 24.2773 68.7788 24.8561C69.3088 25.4349 70.0257 25.725 70.928 25.725C71.2989 25.725 71.6573 25.6653 72.0033 25.5459C72.3478 25.4266 72.7201 25.26 73.1173 25.0476C73.4757 24.8741 73.8535 24.7881 74.2521 24.7881C74.6105 24.7881 74.9247 24.8686 75.1973 25.0282C75.4686 25.1878 75.6651 25.421 75.7841 25.7264L76.5605 27.782L76.5591 27.7834Z" fill="white"/>
<path d="M94.709 11.0276C96.0888 12.4711 96.7794 14.61 96.7794 17.4442V29.6197H94.5499C93.833 29.6197 93.3058 29.4004 92.9681 28.9604C92.6304 28.5218 92.4602 27.9291 92.4602 27.1838V27.0047C90.3899 28.9881 88.1618 29.9792 85.7732 29.9792C84.5788 29.9792 83.4648 29.7057 82.4296 29.1603C81.3945 28.6148 80.5683 27.8694 79.9524 26.9242C79.3352 25.979 79.0266 24.9477 79.0266 23.8304C79.0266 21.7942 79.6895 20.2105 81.0167 19.0793C82.3438 17.9481 84.3533 17.3832 87.0464 17.3832C87.7092 17.3832 88.5714 17.4498 89.6329 17.583C90.6943 17.7163 91.6354 17.9023 92.4588 18.1424C92.445 16.3588 92.1031 15.0652 91.4333 14.2602C90.7635 13.4552 89.6979 13.0526 88.2393 13.0526C87.4698 13.0526 86.7959 13.1123 86.2188 13.2317C85.6417 13.3511 84.9885 13.5773 84.2592 13.9104C83.927 14.0575 83.5631 14.1297 83.1645 14.1297C82.7272 14.1297 82.3189 14.0228 81.9411 13.8105C81.5633 13.5981 81.2741 13.3053 81.0748 12.9319L80.3787 11.5953C80.9226 11.0498 81.663 10.5709 82.5971 10.1587C83.5326 9.74645 84.5276 9.42722 85.5822 9.20097C86.6367 8.97473 87.6345 8.8623 88.577 8.8623C91.2839 8.8623 93.3265 9.58406 94.7063 11.0276H94.709ZM89.5637 25.3794C90.5117 24.9338 91.4776 24.3578 92.4588 23.6527V21.257C90.9988 20.8573 89.4142 20.6588 87.7023 20.6588C86.1496 20.6588 85.0023 20.8656 84.2592 21.2779C83.516 21.6901 83.1451 22.4285 83.1451 23.4931C83.1451 24.3051 83.4565 24.9338 84.0806 25.3794C84.7034 25.8249 85.5393 26.0484 86.5883 26.0484C87.6373 26.0484 88.6143 25.8263 89.5637 25.3794Z" fill="white"/>
<path d="M137.397 1.93625C137.656 1.48376 138.01 1.12427 138.461 0.857779C138.912 0.591285 139.404 0.458038 139.934 0.458038C140.464 0.458038 140.931 0.591285 141.377 0.857779C141.821 1.12427 142.173 1.48376 142.432 1.93625C142.69 2.38873 142.819 2.87453 142.819 3.39364C142.819 3.91274 142.69 4.39854 142.432 4.85102C142.173 5.30351 141.821 5.663 141.377 5.92949C140.933 6.19598 140.451 6.32923 139.934 6.32923C139.416 6.32923 138.912 6.19598 138.461 5.92949C138.01 5.663 137.656 5.30351 137.397 4.85102C137.138 4.39854 137.009 3.91274 137.009 3.39364C137.009 2.87453 137.138 2.38873 137.397 1.93625ZM142.084 29.6003H137.746V9.20098H142.084V29.6003Z" fill="white"/>
<path d="M159.926 9.02193C160.384 9.1413 160.93 9.32868 161.567 9.58129L161.13 11.5578C161.023 12.0908 160.778 12.5099 160.393 12.8153C160.009 13.1221 159.551 13.2747 159.021 13.2747C158.928 13.2747 158.774 13.2622 158.562 13.2345C158.192 13.1679 157.786 13.1345 157.349 13.1345C156.366 13.1345 155.468 13.4274 154.653 14.0131C153.836 14.5989 153.157 15.3845 152.613 16.3686V29.6016H148.294V9.20098H150.702C151.391 9.20098 151.882 9.39808 152.174 9.78949C152.466 10.1823 152.612 10.6778 152.612 11.276V11.9353C153.301 10.9776 154.115 10.2225 155.05 9.67012C155.986 9.1177 157.017 8.84149 158.145 8.84149C158.874 8.84149 159.468 8.90117 159.926 9.02054V9.02193Z" fill="white"/>
<path d="M168.91 29.6003H164.571V0H168.91V29.6003Z" fill="white"/>
<path d="M189.727 11.0276C191.106 12.4711 191.797 14.61 191.797 17.4443V29.6197H189.567C188.851 29.6197 188.323 29.4004 187.986 28.9604C187.648 28.5218 187.478 27.9291 187.478 27.1838V27.0047C185.407 28.9882 183.179 29.9792 180.791 29.9792C179.596 29.9792 178.482 29.7058 177.447 29.1603C176.412 28.6148 175.586 27.8694 174.97 26.9242C174.353 25.979 174.044 24.9477 174.044 23.8304C174.044 21.7942 174.707 20.2105 176.034 19.0807C177.36 17.9495 179.371 17.3846 182.064 17.3846C182.727 17.3846 183.589 17.4512 184.65 17.5844C185.712 17.7177 186.653 17.9037 187.476 18.1438C187.463 16.3602 187.121 15.0666 186.451 14.2616C185.781 13.4566 184.715 13.054 183.257 13.054C182.487 13.054 181.813 13.1137 181.236 13.2331C180.659 13.3525 180.006 13.5787 179.277 13.9118C178.945 14.059 178.581 14.1311 178.182 14.1311C177.745 14.1311 177.336 14.0243 176.959 13.8119C176.581 13.5995 176.292 13.3067 176.094 12.9333L175.398 11.5967C175.942 11.0512 176.682 10.5723 177.616 10.1601C178.552 9.74786 179.547 9.42862 180.601 9.20238C181.656 8.97614 182.653 8.86371 183.596 8.86371C186.303 8.86371 188.345 9.58546 189.725 11.029L189.727 11.0276ZM184.583 25.3794C185.531 24.9338 186.497 24.3578 187.478 23.6527V21.2571C186.018 20.8573 184.433 20.6588 182.721 20.6588C181.169 20.6588 180.021 20.8657 179.278 21.2779C178.535 21.6901 178.164 22.4285 178.164 23.4931C178.164 24.3051 178.475 24.9338 179.1 25.3794C179.722 25.8249 180.558 26.0484 181.607 26.0484C182.656 26.0484 183.633 25.8263 184.583 25.3794Z" fill="white"/>
<path d="M213.906 11.1275C215.127 12.6515 215.737 14.7974 215.737 17.565V29.6003H211.399V18.0439C211.399 16.3269 211.073 15.0694 210.423 14.2713C209.772 13.4732 208.818 13.0735 207.557 13.0735C206.695 13.0735 205.805 13.2928 204.89 13.7328C203.974 14.1714 203.119 14.764 202.323 15.5094V29.6016H197.984V9.20098H200.87C201.428 9.20098 201.808 9.36476 202.014 9.68955C202.221 10.0157 202.323 10.4516 202.323 10.997V11.3371C203.159 10.5654 204.107 9.95605 205.168 9.5105C206.23 9.06496 207.364 8.84149 208.571 8.84149C210.906 8.84149 212.684 9.6035 213.905 11.1261L213.906 11.1275Z" fill="white"/>
<path d="M239.817 0V29.6003H237.031C235.996 29.6003 235.479 28.9687 235.479 27.7043V27.4641C234.695 28.2497 233.8 28.8688 232.792 29.3199C231.784 29.7724 230.669 29.9986 229.449 29.9986C227.684 29.9986 226.108 29.5489 224.723 28.6509C223.336 27.7528 222.251 26.505 221.469 24.9089C220.686 23.3127 220.296 21.5027 220.296 19.4804C220.296 17.4581 220.721 15.6454 221.569 14.0409C222.417 12.4378 223.595 11.183 225.102 10.2781C226.608 9.37309 228.315 8.92061 230.227 8.92061C231.235 8.92061 232.188 9.12048 233.083 9.51883C233.978 9.91857 234.778 10.4571 235.481 11.1358V0H239.82H239.817ZM233.28 24.8506C234.096 24.3314 234.828 23.6527 235.479 22.8144V15.669C235.253 15.3095 234.888 14.9403 234.384 14.5614C233.88 14.1825 233.289 13.8632 232.612 13.6037C231.936 13.3441 231.226 13.215 230.483 13.215C229.369 13.215 228.364 13.4815 227.467 14.0131C226.572 14.5447 225.871 15.2873 225.368 16.2381C224.864 17.1902 224.612 18.2645 224.612 19.461C224.612 20.6574 224.861 21.7068 225.358 22.645C225.856 23.5833 226.543 24.3148 227.417 24.8408C228.293 25.3669 229.288 25.6292 230.402 25.6292C231.516 25.6292 232.462 25.3697 233.278 24.8506H233.28Z" fill="white"/>
<path d="M260.634 11.0276C262.014 12.4711 262.704 14.61 262.704 17.4443V29.6197H260.475C259.758 29.6197 259.231 29.4004 258.893 28.9604C258.554 28.5218 258.385 27.9291 258.385 27.1838V27.0047C256.315 28.9882 254.087 29.9792 251.698 29.9792C250.504 29.9792 249.39 29.7058 248.354 29.1603C247.319 28.6148 246.493 27.8694 245.877 26.9242C245.26 25.979 244.951 24.9477 244.951 23.8304C244.951 21.7942 245.614 20.2105 246.941 19.0807C248.267 17.9495 250.278 17.3846 252.971 17.3846C253.634 17.3846 254.496 17.4512 255.558 17.5844C256.619 17.7177 257.56 17.9037 258.384 18.1438C258.37 16.3602 258.028 15.0666 257.358 14.2616C256.688 13.4566 255.623 13.054 254.164 13.054C253.395 13.054 252.721 13.1137 252.144 13.2331C251.566 13.3525 250.913 13.5787 250.184 13.9118C249.852 14.059 249.488 14.1311 249.089 14.1311C248.652 14.1311 248.244 14.0243 247.866 13.8119C247.488 13.5995 247.199 13.3067 247.001 12.9333L246.305 11.5967C246.849 11.0512 247.589 10.5723 248.523 10.1601C249.459 9.74786 250.454 9.42862 251.508 9.20238C252.563 8.97614 253.561 8.86371 254.503 8.86371C257.21 8.86371 259.253 9.58546 260.632 11.029L260.634 11.0276ZM255.488 25.3794C256.436 24.9338 257.402 24.3578 258.384 23.6527V21.2571C256.924 20.8573 255.339 20.6588 253.627 20.6588C252.074 20.6588 250.927 20.8657 250.184 21.2779C249.441 21.6901 249.07 22.4285 249.07 23.4931C249.07 24.3051 249.381 24.9338 250.005 25.3794C250.63 25.8249 251.464 26.0484 252.513 26.0484C253.562 26.0484 254.539 25.8263 255.488 25.3794Z" fill="white"/>
</g>
<defs>
<clipPath id="clip0_6_198">
<rect width="262.703" height="30" fill="white"/>
</clipPath>
</defs>
</svg>
