<?xml version="1.0" encoding="UTF-8"?>
<svg id="Layer_2" data-name="Layer 2" xmlns="http://www.w3.org/2000/svg" viewBox="0 0 26.3 25.29">
  <defs>
    <style>
      .cls-1 {
        fill: #609e7c;
        stroke-width: 0px;
      }
    </style>
  </defs>
  <g id="Layer_1-2" data-name="Layer 1">
    <path id="star" class="cls-1" d="M26.16,9.45c-.38-1.17-1.42-1.92-2.65-1.92h-5.89l-1.82-5.6c-.38-1.17-1.42-1.92-2.65-1.92s-2.27.75-2.65,1.92l-1.82,5.6H2.79c-1.23,0-2.27.75-2.65,1.92-.38,1.17.02,2.39,1.01,3.11l4.77,3.46-1.82,5.6c-.38,1.17.02,2.39,1.01,3.11.5.36,1.07.54,1.64.54.57,0,1.14-.18,1.64-.54l4.77-3.46,4.77,3.46c.49.35,1.03.54,1.64.54.58,0,1.15-.19,1.64-.54.99-.72,1.39-1.94,1.01-3.11l-1.82-5.6,4.77-3.46c.99-.72,1.39-1.94,1.01-3.11ZM23.82,10.74l-5.12,3.72c-.58.42-.82,1.17-.6,1.86l1.95,6.01c.11.33-.1.53-.19.59-.09.07-.35.21-.63,0l-5.11-3.72c-.29-.21-.62-.32-.98-.32s-.69.11-.98.32l-5.11,3.72c-.28.2-.53.07-.62,0-.09-.07-.3-.26-.19-.59l1.95-6.01c.22-.69-.02-1.43-.6-1.86l-5.11-3.71c-.28-.21-.23-.48-.19-.6s.16-.37.51-.37h6.32c.72,0,1.36-.46,1.58-1.15l1.95-6.01c.11-.33.39-.37.51-.37s.4.04.5.37l1.95,6.01c.22.69.86,1.15,1.58,1.15h6.32c.35,0,.47.26.5.37.04.11.09.39-.19.59Z"/>
  </g>
</svg>