<?xml version="1.0" encoding="UTF-8"?>
<svg id="Layer_2" data-name="Layer 2" xmlns="http://www.w3.org/2000/svg" viewBox="0 0 25.3 24.28">
  <defs>
    <style>
      .cls-1 {
        fill: #609e7c;
        stroke-width: 0px;
      }
    </style>
  </defs>
  <g id="Layer_1-2" data-name="Layer 1">
    <path id="star-filled" class="cls-1" d="M25.18,9.11c-.31-.96-1.16-1.58-2.17-1.58h-6.26l-1.93-5.95c-.31-.96-1.16-1.58-2.17-1.58h0c-1.01,0-1.86.62-2.17,1.58l-1.93,5.95H2.29c-1.01,0-1.86.62-2.17,1.58-.31.96.01,1.96.83,2.55l5.06,3.68-1.93,5.95c-.31.96.01,1.96.83,2.55.81.59,1.87.59,2.68,0l5.06-3.68,5.06,3.68c.41.3.87.44,1.34.44.47,0,.94-.15,1.34-.44.82-.59,1.14-1.59.83-2.55l-1.93-5.95,5.06-3.68c.82-.59,1.14-1.59.83-2.55Z"/>
  </g>
</svg>