<?xml version="1.0" encoding="UTF-8"?>
<svg id="Layer_2" data-name="Layer 2" xmlns="http://www.w3.org/2000/svg" viewBox="0 0 1712.61 216.14">
  <defs>
    <style>
      .cls-1 {
        fill: #fff;
        stroke-width: 0px;
      }
    </style>
  </defs>
  <g id="Layer_1-2" data-name="Layer 1">
    <g id="logo">
      <path class="cls-1" d="M745.71,79.09s4.8-1.75,7-6.01c-1.07,1.55-2.55,2.83-4.08,3.9-22.92,15.05-89.17,11.59-116.72,7.18,26.12-.14,52.2.47,78.26-1.12,10.31-.72,20.72-1.57,30.7-4.29,2.47-.7,4.9-1.56,7.18-2.73,1.98-1.04,3.87-2.35,5.19-4.17h0c.78-2.21.85-4.97-.55-8.37-4.66-11.37-39.17-17.25-50.94-17.67-11.78-.41-57.1-1.23-74.77,1.64-17.67,2.87-39.71,10.27-40.67,19.72-.96,9.45,6.98,12.33,6.98,12.33,0,0-21.5,29.44-16.02,67.37,5.48,37.93,29.17,49.3,29.17,49.3l-6.98,12.33,6.16.41,9.04-7.39s52.45,26.43,104.76-.82l9.86,8.63,5.75-.41-7.8-11.5s28.89-8.76,35.33-53.82c6.44-45.06-16.84-64.5-16.84-64.5ZM698.84,148.15c-.44,5.35-5.24,8.85-5.24,8.85,0,0-1.91,8.74-8.03,9.66-6.11.93-10.16-4.2-10.81-7.86-.66-3.66-2.95-8.84-2.95-8.84-1.53,4.59.6,12.78,2.29,16.05,1.69,3.28,5.19,5.46,3.6,6.72-1.58,1.25-5.35-2.46-8.03-7.21-2.68-4.75-.49-15.89-.49-15.89-2.13-.33-2.84,2.4-2.84,2.4l-.27,3c-.27,3,.33,10.37-8.84,12.12-9.17,1.75-11.47-9.01-11.47-9.01-5.9-2.89-3.77-10.76-1.64-13.92,2.13-3.17,8.52-3.11,11.96-3.6,3.44-.49,5.08-1.31,5.08-1.31-3.55-.33-22-1.47-19.98-8.85,2.02-7.37,7.04-9.01,7.04-9.01,7.43-13.65,11.9-9.12,15.07-8.85,3.17.27,5.46,6.77,5.57,10.49.11,3.71.65,7.04.65,7.04,0,0,1.31-.93,1.64-3.44.33-2.51-.05-8.68,1.31-10.81,1.36-2.13,4.59-5.57,9.01-5.57s9.34,8.35,9.34,8.35c5.84,2.35,7.81,6.94,6.23,12.12s-8.24,7.32-11.79,8.03c-3.55.71-7.21,1.15-7.21,1.15,1.09,1.09,10.16-.05,12.45-.16,2.29-.11,8.79,3,8.35,8.35Z"/>
      <path class="cls-1" d="M787.68,125.39c-1,2.72-2.37,5.27-4,7.64.75-1.43,1.41-2.94,1.97-4.53h0c.73-1,1.4-2.04,2.03-3.11Z"/>
      <g>
        <path class="cls-1" d="M154.45,66.29l-63.27,146.97h-27.9L0,66.29h20.13c4.6,0,8.58,1.08,11.94,3.24,3.35,2.16,5.8,5.25,7.33,9.28l35.52,90.02c.67,1.73,1.15,3.93,1.44,6.62.29,2.68.53,6.23.72,10.64h.29c.19-4.51.43-8.08.72-10.71.29-2.64.72-4.82,1.29-6.54l35.66-90.02c1.53-4.03,3.95-7.12,7.26-9.28,3.31-2.16,7.26-3.24,11.86-3.24h20.28Z"/>
        <path class="cls-1" d="M175.23,13.95c1.87-3.26,4.43-5.85,7.69-7.76,3.26-1.92,6.81-2.88,10.64-2.88s7.21.96,10.43,2.88c3.21,1.92,5.75,4.51,7.62,7.76,1.87,3.26,2.8,6.76,2.8,10.5s-.94,7.24-2.8,10.5c-1.87,3.26-4.41,5.85-7.62,7.76-3.21,1.92-6.69,2.88-10.43,2.88s-7.38-.96-10.64-2.88c-3.26-1.92-5.82-4.5-7.69-7.76-1.87-3.26-2.8-6.76-2.8-10.5s.93-7.24,2.8-10.5ZM209.09,213.26h-31.35V66.29h31.35v146.97Z"/>
        <path class="cls-1" d="M262.08,209.95c-8.87-3.93-16.71-9.15-23.51-15.67l5.9-10.35c1.44-2.4,3.4-4.26,5.9-5.61,2.49-1.34,5.18-2.01,8.05-2.01,3.16,0,6.09.67,8.77,2.01,4.98,2.49,9.47,4.46,13.45,5.9,3.98,1.44,8.22,2.16,12.73,2.16,6.33,0,11.24-1.41,14.74-4.24,3.5-2.83,5.25-6.88,5.25-12.15,0-3.74-1.75-7.12-5.25-10.14-3.5-3.02-9.23-6.06-17.18-9.13-11.22-4.22-19.87-8.48-25.96-12.8-6.09-4.31-10.28-8.94-12.58-13.88-2.3-4.94-3.45-10.9-3.45-17.9,0-8.44,1.87-15.84,5.61-22.22,3.74-6.38,9.08-11.31,16.03-14.81,6.95-3.5,15.12-5.25,24.52-5.25,7.57,0,15.29,1.39,23.15,4.17,7.86,2.78,14.43,6.76,19.7,11.94l-5.46,10.79c-1.25,2.59-3.16,4.63-5.75,6.11-2.59,1.49-5.42,2.23-8.48,2.23-2.4,0-4.94-.53-7.62-1.58-.86-.38-2.23-.93-4.1-1.65s-3.67-1.29-5.39-1.73-3.45-.65-5.18-.65c-5.18,0-9.11,1.08-11.79,3.24-2.69,2.16-4.03,5.3-4.03,9.42,0,3.36,1.44,6.21,4.31,8.56,2.88,2.35,7.91,4.77,15.1,7.26,15.53,5.66,26.91,12.08,34.15,19.27,7.24,7.19,10.86,16.49,10.86,27.9,0,9.3-2.23,17.47-6.69,24.52-4.46,7.05-10.76,12.51-18.91,16.39-8.15,3.88-17.54,5.82-28.19,5.82s-19.82-1.97-28.69-5.9Z"/>
        <path class="cls-1" d="M374.25,13.95c1.87-3.26,4.43-5.85,7.69-7.76,3.26-1.92,6.81-2.88,10.64-2.88s7.21.96,10.43,2.88c3.21,1.92,5.75,4.51,7.62,7.76,1.87,3.26,2.8,6.76,2.8,10.5s-.94,7.24-2.8,10.5c-1.87,3.26-4.41,5.85-7.62,7.76-3.21,1.92-6.69,2.88-10.43,2.88s-7.38-.96-10.64-2.88c-3.26-1.92-5.82-4.5-7.69-7.76-1.87-3.26-2.8-6.76-2.8-10.5s.93-7.24,2.8-10.5ZM408.11,213.26h-31.35V66.29h31.35v146.97Z"/>
        <path class="cls-1" d="M553.21,200.17c-7.1,4.31-14.65,8.01-22.65,11.07-8.01,3.07-16.52,4.6-25.53,4.6s-16.95-1.89-23.8-5.68c-6.86-3.79-12.18-9.25-15.96-16.39-3.79-7.14-5.68-15.6-5.68-25.38v-72.91h-25.74v-19.13c0-3.26,1.05-5.75,3.16-7.48,2.11-1.73,4.46-2.59,7.05-2.59h15.53l.58-38.4c.19-3.64,1.27-6.69,3.24-9.13,1.96-2.44,4.86-3.67,8.7-3.67h19.13v51.19h41.42v29.19h-41.42v65.72c0,7.77,1.92,13.73,5.75,17.9,3.83,4.17,9.01,6.25,15.53,6.25,2.68,0,5.27-.43,7.77-1.29,2.49-.86,5.18-2.06,8.05-3.59,2.59-1.25,5.32-1.87,8.2-1.87,2.59,0,4.86.58,6.83,1.73,1.96,1.15,3.38,2.83,4.24,5.03l5.61,14.81Z"/>
      </g>
      <g>
        <path class="cls-1" d="M807.59,13.95c1.87-3.26,4.43-5.85,7.69-7.76,3.26-1.92,6.81-2.88,10.64-2.88s7.21.96,10.43,2.88c3.21,1.92,5.75,4.51,7.62,7.76,1.87,3.26,2.8,6.76,2.8,10.5s-.94,7.24-2.8,10.5c-1.87,3.26-4.41,5.85-7.62,7.77-3.21,1.92-6.69,2.88-10.43,2.88s-7.38-.96-10.64-2.88c-3.26-1.92-5.82-4.51-7.69-7.77-1.87-3.26-2.8-6.76-2.8-10.5s.93-7.24,2.8-10.5ZM841.46,213.26h-31.35V66.29h31.35v146.97Z"/>
        <path class="cls-1" d="M970.38,65c3.31.86,7.26,2.21,11.86,4.03l-3.16,14.24c-.77,3.84-2.54,6.86-5.32,9.06-2.78,2.21-6.09,3.31-9.92,3.31-.67,0-1.78-.09-3.31-.29-2.68-.48-5.61-.72-8.77-.72-7.1,0-13.59,2.11-19.49,6.33-5.9,4.22-10.81,9.88-14.74,16.97v95.34h-31.21V66.29h17.4c4.98,0,8.53,1.42,10.64,4.24,2.11,2.83,3.16,6.4,3.16,10.71v4.75c4.98-6.9,10.86-12.34,17.62-16.32,6.76-3.98,14.21-5.97,22.36-5.97,5.27,0,9.56.43,12.87,1.29Z"/>
        <path class="cls-1" d="M1104.76,72.84c10.93,5.99,19.51,14.43,25.74,25.31,6.23,10.88,9.39,23.37,9.49,37.46,0,4.6-1.37,8.44-4.1,11.5-2.73,3.07-6.21,4.6-10.43,4.6h-101.53c1.63,6.71,4.55,12.61,8.77,17.69,4.22,5.08,9.44,9.01,15.67,11.79,6.23,2.78,13.04,4.17,20.42,4.17s14.52-2.11,22-6.33c2.97-1.63,6.09-2.44,9.35-2.44,2.88,0,5.58.62,8.12,1.87,2.54,1.25,4.58,3.07,6.11,5.46l7.19,10.64c-6.81,6.71-14.81,11.94-24.02,15.67-9.2,3.74-18.79,5.61-28.76,5.61-14.67,0-27.8-3.26-39.4-9.78-11.6-6.52-20.69-15.53-27.25-27.04-6.57-11.5-9.85-24.54-9.85-39.11s3.24-27.49,9.71-39.04c6.47-11.55,15.41-20.61,26.82-27.18,11.41-6.57,24.3-9.85,38.68-9.85s26.32,3,37.25,8.99ZM1108.5,125.11c-2.4-9.49-7.31-16.97-14.74-22.43-7.43-5.46-16.18-8.2-26.24-8.2-7.48,0-14.31,1.51-20.49,4.53s-11.34,7.24-15.46,12.65c-4.12,5.42-6.86,11.67-8.2,18.77h.43c2.68-3.55,6.95-5.32,12.8-5.32h71.9Z"/>
        <path class="cls-1" d="M1200.24,213.26h-31.35V0h31.35v213.26Z"/>
        <path class="cls-1" d="M1350.66,79.45c9.97,10.4,14.96,25.81,14.96,46.23v87.72h-16.11c-5.18,0-8.99-1.58-11.43-4.75-2.44-3.16-3.67-7.43-3.67-12.8v-1.29c-14.96,14.29-31.06,21.43-48.32,21.43-8.63,0-16.68-1.97-24.16-5.9-7.48-3.93-13.45-9.3-17.9-16.11-4.46-6.81-6.69-14.24-6.69-22.29,0-14.67,4.79-26.08,14.38-34.22,9.59-8.15,24.11-12.22,43.57-12.22,4.79,0,11.02.48,18.69,1.44,7.67.96,14.47,2.3,20.42,4.03-.1-12.85-2.57-22.17-7.41-27.97-4.84-5.8-12.54-8.7-23.08-8.7-5.56,0-10.43.43-14.6,1.29-4.17.86-8.89,2.49-14.16,4.89-2.4,1.06-5.03,1.58-7.91,1.58-3.16,0-6.11-.77-8.84-2.3-2.73-1.53-4.82-3.64-6.26-6.33l-5.03-9.63c3.93-3.93,9.28-7.38,16.03-10.35,6.76-2.97,13.95-5.27,21.57-6.9,7.62-1.63,14.83-2.44,21.64-2.44,19.56,0,34.32,5.2,44.29,15.6ZM1313.49,182.85c6.85-3.21,13.83-7.36,20.92-12.44v-17.26c-10.55-2.88-22-4.31-34.37-4.31-11.22,0-19.51,1.49-24.88,4.46-5.37,2.97-8.05,8.29-8.05,15.96,0,5.85,2.25,10.38,6.76,13.59,4.5,3.21,10.54,4.82,18.12,4.82s14.64-1.6,21.5-4.82Z"/>
        <path class="cls-1" d="M1525.38,80.17c8.82,10.98,13.23,26.44,13.23,46.38v86.71h-31.35v-83.26c0-12.37-2.35-21.43-7.05-27.18-4.7-5.75-11.6-8.63-20.71-8.63-6.23,0-12.65,1.58-19.27,4.75-6.62,3.16-12.8,7.43-18.55,12.8v101.53h-31.35V66.29h20.85c4.03,0,6.78,1.18,8.27,3.52,1.49,2.35,2.23,5.49,2.23,9.42v2.45c6.04-5.56,12.89-9.95,20.56-13.16,7.67-3.21,15.87-4.82,24.59-4.82,16.87,0,29.72,5.49,38.54,16.46Z"/>
        <path class="cls-1" d="M1712.61,0v213.26h-20.13c-7.48,0-11.22-4.55-11.22-13.66v-1.73c-5.66,5.66-12.13,10.12-19.41,13.37-7.29,3.26-15.34,4.89-24.16,4.89-12.75,0-24.14-3.24-34.15-9.71-10.02-6.47-17.86-15.46-23.51-26.96-5.66-11.5-8.48-24.54-8.48-39.11s3.07-27.63,9.2-39.19c6.13-11.55,14.64-20.59,25.53-27.11,10.88-6.52,23.22-9.78,37.03-9.78,7.29,0,14.17,1.44,20.64,4.31,6.47,2.88,12.25,6.76,17.33,11.65V0h31.35ZM1665.37,179.04c5.9-3.74,11.19-8.63,15.89-14.67v-51.48c-1.63-2.59-4.27-5.25-7.91-7.98-3.64-2.73-7.91-5.03-12.8-6.9-4.89-1.87-10.02-2.8-15.39-2.8-8.05,0-15.31,1.92-21.79,5.75-6.47,3.83-11.53,9.18-15.17,16.03-3.64,6.86-5.46,14.6-5.46,23.22s1.8,16.18,5.39,22.94c3.6,6.76,8.56,12.03,14.88,15.82,6.33,3.79,13.52,5.68,21.57,5.68s14.88-1.87,20.78-5.61Z"/>
      </g>
    </g>
  </g>
</svg>